<?xml version="1.0" encoding="UTF-8"?>
<svg version="1.1" xmlns="http://www.w3.org/2000/svg" width="777" height="602">
<path d="M0 0 C256.41 0 512.82 0 777 0 C777 198.66 777 397.32 777 602 C520.59 602 264.18 602 0 602 C0 403.34 0 204.68 0 0 Z " fill="#000000" transform="translate(0,0)"/>
<path d="M0 0 C5.47757782 2.39130273 9.77894897 5.69754299 12.4375 11.125 C15.30019433 19.04828667 17.59057757 27.53505481 17 36 C16.22398437 36.09796875 15.44796875 36.1959375 14.6484375 36.296875 C13.56820312 36.44640625 12.48796875 36.5959375 11.375 36.75 C10.33085937 36.88921875 9.28671875 37.0284375 8.2109375 37.171875 C3.42650138 37.9998217 -1.17881515 39.45006333 -5.83398438 40.80957031 C-10.54423761 42.17148516 -15.28366199 43.41667346 -20.02734375 44.65625 C-20.91212402 44.88749573 -21.7969043 45.11874146 -22.70849609 45.35699463 C-25.45118753 46.07252485 -28.19431387 46.78636894 -30.9375 47.5 C-37.14709022 49.1185536 -43.35607594 50.73940227 -49.56414795 52.36376953 C-51.16297998 52.78137521 -52.76213231 53.19775692 -54.3616333 53.61279297 C-56.49319871 54.16590503 -58.62366225 54.7230743 -60.75390625 55.28125 C-61.94443604 55.59126953 -63.13496582 55.90128906 -64.36157227 56.22070312 C-66.90182681 56.74254514 -66.90182681 56.74254514 -68 58 C-69.32483532 58.30974159 -70.66113159 58.57050858 -72 58.8125 C-83.11701303 60.95649537 -94.06511846 63.67193667 -104.92578125 66.86328125 C-111.33397257 68.69443065 -117.82517864 70.22720447 -124.29907227 71.80615234 C-129.88630522 73.17916507 -135.40104373 74.67109137 -140.88989258 76.39819336 C-143.78218008 77.22307924 -146.03243026 77.579038 -149 77 C-150.6875 74.625 -150.6875 74.625 -152 72 C-154.81509993 69.7226499 -154.81509993 69.7226499 -158 70 C-157.030625 70.61875 -156.06125 71.2375 -155.0625 71.875 C-152 74 -152 74 -151 76 C-149.80482724 86.24217668 -149.80482724 86.24217668 -152.26953125 89.8671875 C-154.34624452 91.57504416 -156.6011293 92.80056465 -159 94 C-155.59919423 93.89592083 -155.59919423 93.89592083 -152 93 C-148.87970511 89.35965596 -148.82562393 86.9537436 -148 82 C-91.24 82 -34.48 82 24 82 C24 104.77 24 127.54 24 151 C23.34 151 22.68 151 22 151 C21.938125 151.721875 21.87625 152.44375 21.8125 153.1875 C20.28976574 158.45850322 15.87162539 161.56651796 11.20703125 164.17749023 C6.66581658 165.86989645 1.8389214 165.40417375 -2.9375 165.25 C-4.00291016 165.23195313 -5.06832031 165.21390625 -6.16601562 165.1953125 C-8.77828929 165.14845557 -11.38866226 165.08286926 -14 165 C-13.34 165.99 -12.68 166.98 -12 168 C-10.41821333 174.80168267 -9.73489169 180.46058703 -13.4375 186.5 C-14.80859375 188.53125 -14.80859375 188.53125 -16 190 C-16.33 190 -16.66 190 -17 190 C-17 188.02 -17 186.04 -17 184 C-19.97 184.99 -19.97 184.99 -23 186 C-23.33 187.65 -23.66 189.3 -24 191 C-22.68 191 -21.36 191 -20 191 C-20 191.99 -20 192.98 -20 194 C-23 196 -23 196 -26 196 C-26 196.66 -26 197.32 -26 198 C-27.77074917 198.02705729 -29.54161711 198.04642195 -31.3125 198.0625 C-32.29863281 198.07410156 -33.28476562 198.08570313 -34.30078125 198.09765625 C-37 198 -37 198 -40 197 C-40 198.65 -40 200.3 -40 202 C-45.25867446 205.32126808 -49.94736802 205.8819019 -56 205 C-58.9187789 203.91251947 -61.30302836 202.59820541 -64 201 C-64.7734375 201.99 -64.7734375 201.99 -65.5625 203 C-68 205 -68 205 -71.5 205.5625 C-75 205 -75 205 -77.4375 202.875 C-79.26836859 199.50620179 -79.64250722 197.77472994 -79 194 C-77.4375 191.625 -77.4375 191.625 -75 190 C-70.59796571 189.53662797 -68.7205836 189.51961093 -65 192 C-64.67 191.01 -64.34 190.02 -64 189 C-63.67 189.66 -63.34 190.32 -63 191 C-62.01 191.33 -61.02 191.66 -60 192 C-60 190.68 -60 189.36 -60 188 C-61.32 188 -62.64 188 -64 188 C-63.6875 186.125 -63.6875 186.125 -63 184 C-62.01 183.34 -61.02 182.68 -60 182 C-60 182.99 -60 183.98 -60 185 C-58.68 185 -57.36 185 -56 185 C-56 183.68 -56 182.36 -56 181 C-56.99 180.67 -57.98 180.34 -59 180 C-56.09399739 178.74335022 -54.20395416 178 -51 178 C-51.0928125 176.700625 -51.0928125 176.700625 -51.1875 175.375 C-50.82867098 168.91607766 -47.63270954 165.25708444 -43 161 C-45.42711949 161.41846888 -46.69575704 161.66608514 -48.38416576 163.51915932 C-50.40456536 165.37076627 -51.33637667 165.3766554 -54.04084778 165.38095093 C-54.86088791 165.3894104 -55.68092804 165.39786987 -56.52581787 165.40658569 C-57.87005829 165.39747665 -57.87005829 165.39747665 -59.24145508 165.38818359 C-60.18810532 165.39344055 -61.13475555 165.39869751 -62.11009216 165.40411377 C-65.24673862 165.41734187 -68.38287941 165.40856351 -71.51953125 165.3984375 C-73.69805499 165.40045793 -75.87657807 165.40336911 -78.05509949 165.40713501 C-82.62574692 165.4115626 -87.19621867 165.40511512 -91.7668457 165.39111328 C-97.62130948 165.37405168 -103.47535976 165.38384082 -109.32980824 165.40183067 C-113.83114219 165.41268266 -118.33237851 165.40921511 -122.83371544 165.4014473 C-124.99184913 165.39944763 -127.14999171 165.40189635 -129.30811501 165.40888596 C-132.32910162 165.41652013 -135.34942406 165.40486688 -138.37036133 165.38818359 C-139.26044891 165.39425629 -140.1505365 165.40032898 -141.06759644 165.40658569 C-148.14169935 165.3343549 -153.28324502 163.32348685 -158.68937683 158.54844666 C-163.99713725 152.27754891 -163.40011916 143.22847904 -163.29296875 135.52734375 C-163.28872391 134.3636879 -163.28447906 133.20003204 -163.28010559 132.00111389 C-163.26341785 128.31299942 -163.22578319 124.62544714 -163.1875 120.9375 C-163.1724404 118.42513814 -163.15875424 115.91276765 -163.14648438 113.40039062 C-163.11354677 107.2667378 -163.06344658 101.13340908 -163 95 C-164.10472656 94.88527344 -165.20945312 94.77054687 -166.34765625 94.65234375 C-170 94 -170 94 -172.4375 91.5625 C-174 89 -174 89 -174 87 C-174.66 87 -175.32 87 -176 87 C-176.62101411 77.15002614 -176.62101411 77.15002614 -174.3125 72.875 C-171.76172165 70.80680134 -170.17923452 70.51669151 -167 70 C-167.15597656 69.42894531 -167.31195313 68.85789062 -167.47265625 68.26953125 C-169.24034057 60.90613102 -170.63234655 51.3992641 -166.57421875 44.6171875 C-166.05472656 44.08351562 -165.53523438 43.54984375 -165 43 C-164.34 43 -163.68 43 -163 43 C-163 42.34 -163 41.68 -163 41 C-157.81303319 38.08501039 -152.5665268 36.67866066 -146.8125 35.25 C-144.75648343 34.7266685 -142.70049505 34.20322627 -140.64453125 33.6796875 C-139.02538818 33.27121582 -139.02538818 33.27121582 -137.37353516 32.85449219 C-131.57597645 31.38601227 -125.78858402 29.87839193 -120 28.375 C-118.27100464 27.92713135 -118.27100464 27.92713135 -116.50708008 27.47021484 C-109.51785005 25.65895838 -102.53619022 23.82334192 -95.5625 21.953125 C-83.3425581 18.68375458 -71.1005837 15.49587828 -58.85864258 12.31005859 C-53.82908522 11.00100149 -48.80157517 9.68483432 -43.77734375 8.35546875 C-42.75737305 8.08661865 -41.73740234 7.81776855 -40.68652344 7.54077148 C-38.75295411 7.03093503 -36.81996405 6.51889411 -34.88769531 6.00415039 C-30.49048699 4.84734758 -26.11230583 3.80161424 -21.64453125 2.953125 C-3.36270077 -0.53469031 -3.36270077 -0.53469031 0 0 Z " fill="#E9A817" transform="translate(470,140)"/>
<path d="M0 0 C5.47757782 2.39130273 9.77894897 5.69754299 12.4375 11.125 C15.30019433 19.04828667 17.59057757 27.53505481 17 36 C16.22398437 36.09796875 15.44796875 36.1959375 14.6484375 36.296875 C13.56820312 36.44640625 12.48796875 36.5959375 11.375 36.75 C10.33085937 36.88921875 9.28671875 37.0284375 8.2109375 37.171875 C3.42650138 37.9998217 -1.17881515 39.45006333 -5.83398438 40.80957031 C-10.54423761 42.17148516 -15.28366199 43.41667346 -20.02734375 44.65625 C-20.91212402 44.88749573 -21.7969043 45.11874146 -22.70849609 45.35699463 C-25.45118753 46.07252485 -28.19431387 46.78636894 -30.9375 47.5 C-37.14709022 49.1185536 -43.35607594 50.73940227 -49.56414795 52.36376953 C-51.16297998 52.78137521 -52.76213231 53.19775692 -54.3616333 53.61279297 C-56.49319871 54.16590503 -58.62366225 54.7230743 -60.75390625 55.28125 C-61.94443604 55.59126953 -63.13496582 55.90128906 -64.36157227 56.22070312 C-66.90182681 56.74254514 -66.90182681 56.74254514 -68 58 C-69.32483532 58.30974159 -70.66113159 58.57050858 -72 58.8125 C-83.11701303 60.95649537 -94.06511846 63.67193667 -104.92578125 66.86328125 C-111.33397257 68.69443065 -117.82517864 70.22720447 -124.29907227 71.80615234 C-129.88630522 73.17916507 -135.40104373 74.67109137 -140.88989258 76.39819336 C-143.78218008 77.22307924 -146.03243026 77.579038 -149 77 C-150.6875 74.625 -150.6875 74.625 -152 72 C-154.81509993 69.7226499 -154.81509993 69.7226499 -158 70 C-157.030625 70.61875 -156.06125 71.2375 -155.0625 71.875 C-152 74 -152 74 -151 76 C-149.80482724 86.24217668 -149.80482724 86.24217668 -152.26953125 89.8671875 C-154.34624452 91.57504416 -156.6011293 92.80056465 -159 94 C-158.34 94.66 -157.68 95.32 -157 96 C-158.32 96 -159.64 96 -161 96 C-161 114.48 -161 132.96 -161 152 C-162.9419619 148.11607621 -163.24671623 146.81040852 -163.22705078 142.68066406 C-163.22689972 141.61986633 -163.22674866 140.5590686 -163.22659302 139.46612549 C-163.21627045 138.32746033 -163.20594788 137.18879517 -163.1953125 136.015625 C-163.1924826 134.84489441 -163.18965271 133.67416382 -163.18673706 132.46795654 C-163.17554156 128.72853375 -163.15043776 124.98935041 -163.125 121.25 C-163.1149694 118.71484721 -163.10584369 116.17969066 -163.09765625 113.64453125 C-163.07560426 107.42960579 -163.04213275 101.21482 -163 95 C-164.10472656 94.88527344 -165.20945312 94.77054687 -166.34765625 94.65234375 C-170 94 -170 94 -172.4375 91.5625 C-174 89 -174 89 -174 87 C-174.66 87 -175.32 87 -176 87 C-176.62101411 77.15002614 -176.62101411 77.15002614 -174.3125 72.875 C-171.76172165 70.80680134 -170.17923452 70.51669151 -167 70 C-167.15597656 69.42894531 -167.31195313 68.85789062 -167.47265625 68.26953125 C-169.24034057 60.90613102 -170.63234655 51.3992641 -166.57421875 44.6171875 C-166.05472656 44.08351562 -165.53523438 43.54984375 -165 43 C-164.34 43 -163.68 43 -163 43 C-163 42.34 -163 41.68 -163 41 C-157.81303319 38.08501039 -152.5665268 36.67866066 -146.8125 35.25 C-144.75648343 34.7266685 -142.70049505 34.20322627 -140.64453125 33.6796875 C-139.02538818 33.27121582 -139.02538818 33.27121582 -137.37353516 32.85449219 C-131.57597645 31.38601227 -125.78858402 29.87839193 -120 28.375 C-118.27100464 27.92713135 -118.27100464 27.92713135 -116.50708008 27.47021484 C-109.51785005 25.65895838 -102.53619022 23.82334192 -95.5625 21.953125 C-83.3425581 18.68375458 -71.1005837 15.49587828 -58.85864258 12.31005859 C-53.82908522 11.00100149 -48.80157517 9.68483432 -43.77734375 8.35546875 C-42.75737305 8.08661865 -41.73740234 7.81776855 -40.68652344 7.54077148 C-38.75295411 7.03093503 -36.81996405 6.51889411 -34.88769531 6.00415039 C-30.49048699 4.84734758 -26.11230583 3.80161424 -21.64453125 2.953125 C-3.36270077 -0.53469031 -3.36270077 -0.53469031 0 0 Z " fill="#E9A817" transform="translate(470,140)"/>
<path d="M0 0 C-1.16767565 5.9345398 -2.77035976 11.37742895 -5 17 C-5.33 17.99 -5.66 18.98 -6 20 C-5.26394531 19.7834375 -4.52789062 19.566875 -3.76953125 19.34375 C-2.79371094 19.0653125 -1.81789063 18.786875 -0.8125 18.5 C0.15042969 18.2215625 1.11335937 17.943125 2.10546875 17.65625 C4.86912222 17.02967269 7.18001009 16.79964548 10 17 C11 18 11 18 11.0625 21.0625 C11.041875 22.031875 11.02125 23.00125 11 24 C10.47306046 24.13320145 9.94612091 24.26640289 9.4032135 24.40364075 C-20.48105019 31.96074324 -50.33876097 39.61579356 -80.17042923 47.37774277 C-82.53799205 47.99362467 -84.90568393 48.6090081 -87.27340698 49.22427368 C-91.05848992 50.20802496 -94.84320844 51.19316569 -98.62760353 52.17955971 C-100.07767618 52.55747402 -101.52781852 52.93512105 -102.97803307 53.31249046 C-109.94021738 55.12514467 -116.89530106 56.9557347 -123.82373047 58.89453125 C-125.35259132 59.32137207 -125.35259132 59.32137207 -126.91233826 59.75683594 C-128.74535697 60.27229649 -130.57651498 60.79445024 -132.40516663 61.32519531 C-136.72929413 62.54444078 -140.45518024 63.28568223 -145 63 C-147.1793735 58.64125299 -145.57224041 52.78727142 -144.14453125 48.328125 C-139.44548872 36.44548872 -139.44548872 36.44548872 -137 34 C-135.0187584 33.76885515 -133.03733847 33.53903912 -131.0546875 33.3203125 C-128.85491821 33.0573354 -128.85491821 33.0573354 -126.375 31.9375 C-123.47546229 30.79294564 -121.08894047 30.85632835 -118 31 C-119.36874156 37.95776959 -121.4533129 44.38603107 -124 51 C-122.95199219 50.7834375 -121.90398437 50.566875 -120.82421875 50.34375 C-119.44534373 50.06234693 -118.06643574 49.78110536 -116.6875 49.5 C-115.99720703 49.35691406 -115.30691406 49.21382812 -114.59570312 49.06640625 C-111.67475227 48.47374956 -108.98891878 48 -106 48 C-105.90203125 47.41734375 -105.8040625 46.8346875 -105.703125 46.234375 C-102.46153846 28.46153846 -102.46153846 28.46153846 -98 24 C-91.35926951 21.77280116 -84.98570955 20.5969783 -78 21 C-78.63621789 23.71382568 -79.42249445 26.28487899 -80.41015625 28.890625 C-80.67763672 29.59960938 -80.94511719 30.30859375 -81.22070312 31.0390625 C-81.49849609 31.76867187 -81.77628906 32.49828125 -82.0625 33.25 C-82.34416016 33.99507812 -82.62582031 34.74015625 -82.91601562 35.5078125 C-83.6086913 37.33929393 -84.30407907 39.16974923 -85 41 C-84.02417969 40.71125 -83.04835938 40.4225 -82.04296875 40.125 C-80.75787385 39.74978981 -79.47271419 39.37480138 -78.1875 39 C-76.92292969 38.62875 -75.65835938 38.2575 -74.35546875 37.875 C-71 37 -71 37 -68 37 C-67.896875 36.154375 -67.79375 35.30875 -67.6875 34.4375 C-67.07127141 31.35635705 -66.19671149 28.77108275 -64.86328125 25.93359375 C-63.94289947 23.9604009 -63.94289947 23.9604009 -63.23046875 21.66015625 C-61.0964622 15.64790948 -61.0964622 15.64790948 -58.0234375 13.83203125 C-55.69422102 13.04361948 -53.40851931 12.49121118 -51 12 C-49.58302515 11.60527129 -48.16633901 11.20950412 -46.75 10.8125 C-43.65561722 10.1420504 -41.13675598 9.80395275 -38 10 C-38.268125 10.66 -38.53625 11.32 -38.8125 12 C-41.16495437 17.94304263 -43.32798237 23.82639646 -45 30 C-44.18015625 29.7834375 -43.3603125 29.566875 -42.515625 29.34375 C-41.43796875 29.0653125 -40.3603125 28.786875 -39.25 28.5 C-38.18265625 28.2215625 -37.1153125 27.943125 -36.015625 27.65625 C-33 27 -33 27 -29 27 C-28.86207031 26.42507812 -28.72414063 25.85015625 -28.58203125 25.2578125 C-27.81550391 22.28430377 -26.87609388 19.40323749 -25.84375 16.51171875 C-24.95087061 13.99923653 -24.95087061 13.99923653 -24.40625 11.33203125 C-23.60404275 8.38043176 -22.88195891 6.4265072 -21 4 C-14.23989622 0.71289954 -7.45459288 -0.20998853 0 0 Z " fill="#0D0901" transform="translate(470,146)"/>
<path d="M0 0 C53.46 0 106.92 0 162 0 C162 2.31 162 4.62 162 7 C156.72 7 151.44 7 146 7 C148.61364621 11.35607701 151.36508273 15.02057656 154.57421875 18.9140625 C156 21 156 21 156 24 C148.79379557 25.06284782 141.07480968 26.13559504 134 24 C130.48511808 21.01521696 128.55624744 17.15380522 126.37304688 13.15478516 C123.91670207 8.78369325 123.91670207 8.78369325 119.85986328 6.09667969 C114.87624268 5.14850068 110.01465655 5.42367099 105 6 C107.63961363 10.75130453 110.41038789 14.97325234 113.828125 19.203125 C115 21 115 21 115 24 C108.11218175 25.00665135 100.76896669 25.99627592 94 24 C90.58731995 21.20613153 88.6267788 17.56038426 86.42382812 13.796875 C83.88334791 9.6428662 83.88334791 9.6428662 79.85546875 7.14404297 C74.87915578 6.23728942 70.00876655 6.47775894 65 7 C66.0828125 8.46373047 66.0828125 8.46373047 67.1875 9.95703125 C68.12537208 11.24191599 69.06285176 12.52708722 70 13.8125 C70.47695313 14.45509766 70.95390625 15.09769531 71.4453125 15.75976562 C71.89648438 16.38173828 72.34765625 17.00371094 72.8125 17.64453125 C73.44091797 18.50075073 73.44091797 18.50075073 74.08203125 19.37426758 C75 21 75 21 75 24 C56.47313411 25.63265494 56.47313411 25.63265494 51 22.01953125 C48.49617674 18.78705629 46.68124724 15.54452817 45.03515625 11.8125 C43.92442671 9.67133462 42.87708536 8.51409545 41 7 C39.04555864 6.44695531 39.04555864 6.44695531 36.9140625 6.3515625 C36.14570068 6.29234619 35.37733887 6.23312988 34.58569336 6.17211914 C31.05193655 6.01059447 27.53754679 5.9726981 24 6 C26.77227048 10.80118768 30.03017295 15.14648254 33.35546875 19.57421875 C35 22 35 22 35 24 C14.34377391 25.80266101 14.34377391 25.80266101 9.08984375 21.76171875 C7.39212988 18.90383595 6.18869419 16.09832925 5 13 C3.57593403 11.19223085 3.57593403 11.19223085 2.0625 9.75 C0 7 0 7 0 0 Z " fill="#070500" transform="translate(327,229)"/>
<path d="M0 0 C1.22589844 0.01546875 2.45179688 0.0309375 3.71484375 0.046875 C6.37019718 0.20799329 8.52020789 0.58839145 11.0625 1.25 C11.3925 0.92 11.7225 0.59 12.0625 0.25 C14.14189836 0.09727583 16.22768931 0.02804678 18.3125 0 C19.45203125 -0.02578125 20.5915625 -0.0515625 21.765625 -0.078125 C25.59246132 0.30274497 27.17741346 0.69520905 30.0625 3.25 C30.78246577 6.33259549 30.6430216 9.36152616 30.55078125 12.51171875 C30.54370651 13.41751175 30.53663177 14.32330475 30.52934265 15.25654602 C30.50134228 18.15103583 30.43859441 21.0435945 30.375 23.9375 C30.34992438 25.89906061 30.32710993 27.86065154 30.30664062 29.82226562 C30.25149716 34.63225505 30.16518642 39.44080009 30.0625 44.25 C26.7625 44.25 23.4625 44.25 20.0625 44.25 C20.0625 32.04 20.0625 19.83 20.0625 7.25 C18.4125 7.25 16.7625 7.25 15.0625 7.25 C15.0625 19.46 15.0625 31.67 15.0625 44.25 C11.7625 44.25 8.4625 44.25 5.0625 44.25 C5.0625 32.04 5.0625 19.83 5.0625 7.25 C3.0825 7.25 1.1025 7.25 -0.9375 7.25 C-0.9375 19.46 -0.9375 31.67 -0.9375 44.25 C-3.9075 44.25 -6.8775 44.25 -9.9375 44.25 C-10.01160115 38.46593031 -10.06607885 32.68213629 -10.10229492 26.89770508 C-10.11739082 24.92955717 -10.13786948 22.96144294 -10.16381836 20.9934082 C-10.20016649 18.16609388 -10.21721814 15.3392239 -10.23046875 12.51171875 C-10.24595261 11.63037766 -10.26143646 10.74903656 -10.27738953 9.84098816 C-10.27761612 9.02036392 -10.27784271 8.19973969 -10.27807617 7.35424805 C-10.28473801 6.63254929 -10.29139984 5.91085052 -10.29826355 5.1672821 C-9.24116987 -0.4506546 -4.83419258 -0.1014521 0 0 Z " fill="#E6A617" transform="translate(127.9375,369.75)"/>
<path d="M0 0 C1.11246094 0.02449219 2.22492187 0.04898437 3.37109375 0.07421875 C6.5625 0.3125 6.5625 0.3125 9.41015625 0.89453125 C10.12042969 1.03246094 10.83070313 1.17039062 11.5625 1.3125 C11.8925 0.9825 12.2225 0.6525 12.5625 0.3125 C14.63945324 0.10715152 16.72630607 -0.00169166 18.8125 -0.0625 C19.95203125 -0.11148437 21.0915625 -0.16046875 22.265625 -0.2109375 C26.67074109 0.48845297 27.86128455 1.790224 30.5625 5.3125 C31.231785 8.3328703 31.14689417 11.25096044 31.05078125 14.33203125 C31.04370651 15.19060226 31.03663177 16.04917328 31.02934265 16.9337616 C31.00144402 19.66507603 30.93871691 22.39430958 30.875 25.125 C30.84991114 26.9810901 30.82709899 28.83721246 30.80664062 30.69335938 C30.75163253 35.23386972 30.66539364 39.77283257 30.5625 44.3125 C27.2625 44.3125 23.9625 44.3125 20.5625 44.3125 C20.5625 32.1025 20.5625 19.8925 20.5625 7.3125 C18.5825 7.3125 16.6025 7.3125 14.5625 7.3125 C14.5625 19.5225 14.5625 31.7325 14.5625 44.3125 C11.5925 44.3125 8.6225 44.3125 5.5625 44.3125 C5.5625 32.1025 5.5625 19.8925 5.5625 7.3125 C3.5825 7.3125 1.6025 7.3125 -0.4375 7.3125 C-0.4375 19.5225 -0.4375 31.7325 -0.4375 44.3125 C-3.7375 44.3125 -7.0375 44.3125 -10.4375 44.3125 C-10.53642174 38.6891798 -10.60899342 33.06636667 -10.65722656 27.44238281 C-10.67733452 25.52953265 -10.70462507 23.61674389 -10.73925781 21.70410156 C-10.78781249 18.95362189 -10.81047658 16.20395523 -10.828125 13.453125 C-10.84877014 12.59881897 -10.86941528 11.74451294 -10.89068604 10.86431885 C-10.89292015 4.94465398 -10.89292015 4.94465398 -8.60424805 1.76782227 C-5.62681437 -0.23200671 -3.55635505 -0.1192304 0 0 Z " fill="#E6A617" transform="translate(647.4375,369.6875)"/>
<path d="M0 0 C2.97 0 5.94 0 9 0 C10.8177324 5.62886042 11.57915186 11.06019494 12.125 16.9375 C12.558125 21.4234375 12.558125 21.4234375 13 26 C14.65 17.75 16.3 9.5 18 1 C20.97 1 23.94 1 27 1 C27.19916016 2.48113281 27.19916016 2.48113281 27.40234375 3.9921875 C27.57894531 5.27351563 27.75554687 6.55484375 27.9375 7.875 C28.11152344 9.15117187 28.28554688 10.42734375 28.46484375 11.7421875 C28.81433227 14.87559454 28.81433227 14.87559454 30 17 C30.04022391 19.3329866 30.04320247 21.66706666 30 24 C30.66 24 31.32 24 32 24 C32.05534912 23.45061768 32.11069824 22.90123535 32.16772461 22.33520508 C32.42181253 19.82737577 32.67962299 17.31994239 32.9375 14.8125 C33.02451172 13.94818359 33.11152344 13.08386719 33.20117188 12.19335938 C33.6267231 8.0796975 34.07203814 4.03788809 35 0 C37.97 0 40.94 0 44 0 C43.43866952 9.90476691 42.07920823 19.54564984 40.4375 29.3125 C40.20066457 30.74666111 39.9643337 32.18090563 39.72851562 33.61523438 C39.15813347 37.07780011 38.58101481 40.53920051 38 44 C34.04 44 30.08 44 26 44 C25.79503906 42.73542969 25.59007812 41.47085938 25.37890625 40.16796875 C25.10689979 38.50779137 24.83475728 36.84763627 24.5625 35.1875 C24.42779297 34.35412109 24.29308594 33.52074219 24.15429688 32.66210938 C23.95610352 31.45844727 23.95610352 31.45844727 23.75390625 30.23046875 C23.63345947 29.49207764 23.5130127 28.75368652 23.38891602 27.99291992 C23.00606924 25.80376404 23.00606924 25.80376404 22 23 C21.01 29.93 20.02 36.86 19 44 C15.04 44 11.08 44 7 44 C5.05222338 34.75842159 3.3858783 25.51573433 2.00268555 16.17260742 C1.44142432 11.95957915 1.44142432 11.95957915 0 8 C-0.13415472 5.3276379 -0.04318541 2.67749512 0 0 Z " fill="#E7A717" transform="translate(484,370)"/>
<path d="M0 0 C21.10490368 -0.02332704 42.20980525 -0.04097821 63.3147192 -0.05181217 C73.11338163 -0.05697554 82.91203606 -0.06401902 92.71069336 -0.07543945 C101.24798655 -0.08538503 109.78527395 -0.09185313 118.32257277 -0.09408849 C122.84589928 -0.09539582 127.36920922 -0.09848302 131.89253044 -0.10573006 C136.14497932 -0.11248829 140.39740473 -0.11461737 144.64985847 -0.11310768 C146.21523287 -0.1133841 147.78060801 -0.11539039 149.34597778 -0.11920547 C151.47388093 -0.12413967 153.60169401 -0.12299933 155.729599 -0.12025452 C156.92332091 -0.12117631 158.11704283 -0.1220981 159.34693813 -0.12304783 C162 0 162 0 163 1 C163.125 3.5 163.125 3.5 163 6 C161.16695051 7.83304949 158.23924348 7.13023264 155.78102112 7.13371277 C154.79567828 7.1371111 154.79567828 7.1371111 153.79042953 7.14057809 C151.57324085 7.14694505 149.35611287 7.14608701 147.13891602 7.14526367 C145.55582601 7.14825349 143.97273674 7.1516556 142.38964844 7.15544128 C138.07772353 7.16430355 133.76581845 7.16662033 129.45388532 7.16725707 C125.86023686 7.16820431 122.26659306 7.17188046 118.67294639 7.17542917 C110.19789612 7.18358217 101.72285648 7.18601263 93.24780273 7.18530273 C84.49150202 7.1847017 75.73526287 7.19525677 66.97897774 7.2110464 C59.47325301 7.22410104 51.96754844 7.22948751 44.46181244 7.22884732 C39.97366579 7.22859173 35.48557382 7.23147679 30.99743843 7.24202538 C26.77777587 7.25167155 22.55822062 7.25180963 18.33855438 7.24450874 C16.78649935 7.24345855 15.23443775 7.24585137 13.68239403 7.2518692 C11.57012195 7.25953115 9.45822589 7.25498338 7.34596252 7.24723816 C5.56977209 7.24805531 5.56977209 7.24805531 3.75769901 7.24888897 C1 7 1 7 -1 5 C-0.625 2.375 -0.625 2.375 0 0 Z " fill="#191202" transform="translate(320,275)"/>
<path d="M0 0 C0.78117187 0.00257813 1.56234375 0.00515625 2.3671875 0.0078125 C3.57761719 0.05035156 3.57761719 0.05035156 4.8125 0.09375 C6.02292969 0.08988281 6.02292969 0.08988281 7.2578125 0.0859375 C10.56827019 0.14056551 12.99149792 0.22021564 16.04101562 1.60766602 C18.76801851 4.6650211 18.38414902 7.94161515 18.34375 11.83984375 C18.3475769 12.64736588 18.35140381 13.454888 18.35534668 14.28688049 C18.35806753 15.9940821 18.35069409 17.70132527 18.33398438 19.40844727 C18.31260288 22.01869002 18.3337635 24.62617186 18.359375 27.23632812 C18.35673121 28.8958394 18.35160516 30.55534896 18.34375 32.21484375 C18.35184692 32.99411728 18.35994385 33.77339081 18.36828613 34.57627869 C18.30797522 38.07183074 18.09404997 40.1986255 16.04101562 43.07983398 C12.39171472 45.55894385 9.1069986 45.25305111 4.8125 45.21875 C4.00554687 45.25097656 3.19859375 45.28320312 2.3671875 45.31640625 C1.58601563 45.31769531 0.80484375 45.31898438 0 45.3203125 C-0.70769531 45.32627441 -1.41539062 45.33223633 -2.14453125 45.33837891 C-5.59516034 44.08068069 -6.54674146 41.77192824 -8.1875 38.59375 C-8.70507812 34.96264648 -8.70507812 34.96264648 -8.71875 30.96484375 C-8.7225769 30.25272232 -8.72640381 29.54060089 -8.73034668 28.80690002 C-8.73305433 27.31013566 -8.72577371 25.81332304 -8.70898438 24.31665039 C-8.68752201 22.03359124 -8.70883685 19.75366654 -8.734375 17.47070312 C-8.73173213 16.01040977 -8.726608 14.55011835 -8.71875 13.08984375 C-8.71423828 11.77169678 -8.70972656 10.4535498 -8.70507812 9.09545898 C-7.92322502 3.80578017 -5.71911331 -0.05729531 0 0 Z " fill="#E8A717" transform="translate(440.1875,369.40625)"/>
<path d="M0 0 C0.75087891 -0.01546875 1.50175781 -0.0309375 2.27539062 -0.046875 C3.37463867 -0.03914063 3.37463867 -0.03914063 4.49609375 -0.03125 C5.15665771 -0.02673828 5.81722168 -0.02222656 6.49780273 -0.01757812 C9.72636943 0.79175868 11.29846219 2.06632247 13.5625 4.5 C14.07230441 7.32700975 14.2657597 9.546848 14.2265625 12.37109375 C14.23134613 13.13043716 14.23612976 13.88978058 14.24105835 14.6721344 C14.2444543 16.27501501 14.23527277 17.87796517 14.21435547 19.48071289 C14.18761614 21.92687514 14.21408747 24.36843461 14.24609375 26.81445312 C14.24278886 28.37501008 14.23638099 29.93556418 14.2265625 31.49609375 C14.23668365 32.22332138 14.24680481 32.95054901 14.25723267 33.69981384 C14.16820754 37.5828168 13.67015401 39.36170671 11.25927734 42.45874023 C7.73867105 45.12357721 4.81148195 45.24259175 0.5625 45.125 C-0.13617188 45.14433594 -0.83484375 45.16367187 -1.5546875 45.18359375 C-5.2217966 45.14899838 -7.1992781 44.68016945 -10.13647461 42.45874023 C-12.99881537 38.77824075 -13.14806839 35.97535345 -13.06640625 31.49609375 C-13.06881821 30.73579361 -13.07123016 29.97549347 -13.07371521 29.19215393 C-13.07273907 27.59102136 -13.05940072 25.98985406 -13.03442383 24.38891602 C-13.0000499 21.94105348 -13.0137885 19.49679135 -13.03320312 17.04882812 C-13.02630574 15.48956801 -13.01663431 13.93031717 -13.00390625 12.37109375 C-13.00886612 11.64184189 -13.01382599 10.91259003 -13.01893616 10.16123962 C-12.9404129 6.76826112 -12.66665619 4.81484747 -10.64794922 2.04125977 C-7.29311405 -0.29793555 -3.93731756 -0.08069652 0 0 Z " fill="#E6A617" transform="translate(76.4375,369.5)"/>
<path d="M0 0 C1.12631836 -0.0299707 1.12631836 -0.0299707 2.27539062 -0.06054688 C3.00822266 -0.05990234 3.74105469 -0.05925781 4.49609375 -0.05859375 C5.4869397 -0.06137329 5.4869397 -0.06137329 6.49780273 -0.06420898 C9.79854421 0.73785129 11.2898547 1.90137018 13.5625 4.4375 C14.25217644 7.4908606 14.14492554 10.46153559 14.05078125 13.578125 C14.04370651 14.46030701 14.03663177 15.34248901 14.02934265 16.25140381 C14.00139178 19.06430481 13.93865381 21.87520252 13.875 24.6875 C13.84991794 26.59632538 13.82710461 28.50518202 13.80664062 30.4140625 C13.75156299 35.08931152 13.66528694 39.76306633 13.5625 44.4375 C10.2625 44.4375 6.9625 44.4375 3.5625 44.4375 C3.5625 39.4875 3.5625 34.5375 3.5625 29.4375 C1.2525 29.4375 -1.0575 29.4375 -3.4375 29.4375 C-3.4375 34.3875 -3.4375 39.3375 -3.4375 44.4375 C-6.4075 44.4375 -9.3775 44.4375 -12.4375 44.4375 C-12.53630115 38.65345259 -12.6089363 32.86989516 -12.65722656 27.08520508 C-12.67735481 25.1170191 -12.70466019 23.14889301 -12.73925781 21.1809082 C-12.78772311 18.3535282 -12.81045618 15.52693799 -12.828125 12.69921875 C-12.84877014 11.81787766 -12.86941528 10.93653656 -12.89068604 10.02848816 C-12.89291917 3.96287306 -12.89291917 3.96287306 -10.65893555 1.38574219 C-7.17562073 -0.10114591 -3.72014847 -0.03494589 0 0 Z " fill="#E7A717" transform="translate(197.4375,369.5625)"/>
<path d="M0 0 C6.93 0 13.86 0 21 0 C25.50165414 5.62706767 25.50165414 5.62706767 25.3125 10.8125 C25.27769531 12.01777344 25.24289062 13.22304688 25.20703125 14.46484375 C25.13865019 15.9765911 25.06955553 17.48830623 25 19 C24.91949669 21.08459413 24.8401557 23.16923334 24.76171875 25.25390625 C24.53215847 31.17043989 24.27408174 37.08537434 24 43 C21.03 43 18.06 43 15 43 C15 37.39 15 31.78 15 26 C13.02 26 11.04 26 9 26 C9 31.61 9 37.22 9 43 C6.03 43 3.06 43 0 43 C0 28.81 0 14.62 0 0 Z " fill="#EBAA17" transform="translate(276,371)"/>
<path d="M0 0 C16.00265725 -0.04667598 32.0052925 -0.08196719 48.00800133 -0.10362434 C55.43797452 -0.11394644 62.86790548 -0.12802453 70.29785156 -0.15087891 C76.77215783 -0.1707843 83.24643351 -0.18370964 89.72076952 -0.18817699 C93.15036531 -0.19078923 96.57987358 -0.19694832 100.00944138 -0.21146011 C103.83362241 -0.2275111 107.65771703 -0.22798152 111.48193359 -0.22705078 C112.62488388 -0.23424133 113.76783417 -0.24143188 114.94541931 -0.24884033 C115.98310959 -0.246091 117.02079987 -0.24334167 118.0899353 -0.24050903 C119.44773637 -0.24327441 119.44773637 -0.24327441 120.83296776 -0.24609566 C123 0 123 0 125 2 C125 3.32 125 4.64 125 6 C122.52761759 7.23619121 120.90047743 7.12582049 118.1346283 7.12698364 C117.10679733 7.12980347 116.07896637 7.13262329 115.01998901 7.13552856 C113.88796051 7.13350433 112.75593201 7.1314801 111.58959961 7.12939453 C110.40097824 7.13114685 109.21235687 7.13289917 107.98771667 7.13470459 C104.72339561 7.13835866 101.4591149 7.13749241 98.19479442 7.1343255 C94.78396057 7.13179883 91.37312948 7.13414025 87.96229553 7.13571167 C82.23486851 7.13753222 76.50745437 7.1351298 70.7800293 7.13037109 C64.1498664 7.1249261 57.51973424 7.12669331 50.88957208 7.1321975 C45.20463482 7.1367288 39.51970684 7.13737917 33.83476835 7.13475883 C30.43600781 7.13319648 27.03726174 7.13300118 23.63850212 7.13629532 C19.85264854 7.13881995 16.06685495 7.13498404 12.28100586 7.12939453 C11.14695312 7.13141876 10.01290039 7.13344299 8.84448242 7.13552856 C7.30696571 7.13129883 7.30696571 7.13129883 5.73838806 7.12698364 C4.84223754 7.12660662 3.94608702 7.12622959 3.02278042 7.12584114 C1 7 1 7 0 6 C-0.04080783 4.00041636 -0.04254356 1.99954746 0 0 Z " fill="#1F1703" transform="translate(320,286)"/>
<path d="M0 0 C0.81533203 -0.01546875 1.63066406 -0.0309375 2.47070312 -0.046875 C8.33760417 -0.00830868 8.33760417 -0.00830868 10.984375 2.234375 C12.59815085 6.07039957 12.11957425 9.37298366 11.9375 13.5 C8.6375 13.5 5.3375 13.5 1.9375 13.5 C1.9375 11.85 1.9375 10.2 1.9375 8.5 C0.2875 8.5 -1.3625 8.5 -3.0625 8.5 C-3.0625 11.8 -3.0625 15.1 -3.0625 18.5 C-1.515625 18.4175 0.03125 18.335 1.625 18.25 C5.03329674 18.06822417 6.69118397 18.3689296 9.734375 19.98828125 C12.78063522 23.46123395 12.6390099 26.53802447 12.5 30.9375 C12.51095703 31.68837891 12.52191406 32.43925781 12.53320312 33.21289062 C12.48489628 36.87454966 12.09675206 39.1827368 10.43359375 42.49609375 C6.83737353 45.38320013 3.92519708 45.2392877 -0.5625 45.125 C-1.32175781 45.14433594 -2.08101563 45.16367187 -2.86328125 45.18359375 C-6.87972478 45.14842349 -8.50870773 44.99961694 -11.578125 42.23046875 C-13.72581211 38.27985482 -13.36247374 35.92461272 -13.0625 31.5 C-9.7625 31.5 -6.4625 31.5 -3.0625 31.5 C-3.0625 33.48 -3.0625 35.46 -3.0625 37.5 C-0.5875 37.005 -0.5875 37.005 1.9375 36.5 C2.4325 32.045 2.4325 32.045 2.9375 27.5 C1.81601562 27.53480469 1.81601562 27.53480469 0.671875 27.5703125 C-0.31296875 27.58835937 -1.2978125 27.60640625 -2.3125 27.625 C-3.28703125 27.64820313 -4.2615625 27.67140625 -5.265625 27.6953125 C-8.11319951 27.49645953 -9.69287132 27.05438946 -12.0625 25.5 C-13.82002146 21.98495709 -13.33203401 17.99766748 -13.375 14.125 C-13.40400391 13.26132812 -13.43300781 12.39765625 -13.46289062 11.5078125 C-13.50054754 7.75370776 -13.47873596 5.23624532 -11.609375 1.9296875 C-7.78094207 -0.21940215 -4.31855687 -0.08232356 0 0 Z " fill="#E1A216" transform="translate(340.0625,369.5)"/>
<path d="M0 0 C2.97 0 5.94 0 9 0 C9 5.94 9 11.88 9 18 C11.64 18 14.28 18 17 18 C17 12.06 17 6.12 17 0 C19.97 0 22.94 0 26 0 C26 14.19 26 28.38 26 43 C23.03 43 20.06 43 17 43 C17 37.39 17 31.78 17 26 C14.36 26 11.72 26 9 26 C9 31.61 9 37.22 9 43 C6.03 43 3.06 43 0 43 C0 28.81 0 14.62 0 0 Z " fill="#F1AE18" transform="translate(379,371)"/>
<path d="M0 0 C0.33 1.32 0.66 2.64 1 4 C3.31 4 5.62 4 8 4 C8 5.98 8 7.96 8 10 C2.25 10.125 2.25 10.125 0 9 C1.32 11.97 2.64 14.94 4 18 C4.391875 17.34 4.78375 16.68 5.1875 16 C7 14 7 14 9.6875 13.75 C10.450625 13.8325 11.21375 13.915 12 14 C12.1875 17.375 12.1875 17.375 12 21 C11.01 21.66 10.02 22.32 9 23 C11.31 23.66 13.62 24.32 16 25 C15.979375 24.195625 15.95875 23.39125 15.9375 22.5625 C16 20 16 20 17 19 C18.99958364 18.95919217 21.00045254 18.95745644 23 19 C23 20.98 23 22.96 23 25 C24.32 25.33 25.64 25.66 27 26 C26.01 26 25.02 26 24 26 C24 26.66 24 27.32 24 28 C22.22925083 28.02705729 20.45838289 28.04642195 18.6875 28.0625 C17.70136719 28.07410156 16.71523438 28.08570313 15.69921875 28.09765625 C13 28 13 28 10 27 C10 28.65 10 30.3 10 32 C4.74132554 35.32126808 0.05263198 35.8819019 -6 35 C-8.9187789 33.91251947 -11.30302836 32.59820541 -14 31 C-14.515625 31.66 -15.03125 32.32 -15.5625 33 C-18 35 -18 35 -21.5 35.5625 C-25 35 -25 35 -27.4375 32.875 C-29.26836859 29.50620179 -29.64250722 27.77472994 -29 24 C-27.4375 21.625 -27.4375 21.625 -25 20 C-20.59796571 19.53662797 -18.7205836 19.51961093 -15 22 C-14.67 21.01 -14.34 20.02 -14 19 C-13.67 19.66 -13.34 20.32 -13 21 C-12.01 21.33 -11.02 21.66 -10 22 C-10 20.68 -10 19.36 -10 18 C-11.32 18 -12.64 18 -14 18 C-13.6875 16.125 -13.6875 16.125 -13 14 C-12.01 13.34 -11.02 12.68 -10 12 C-10 12.99 -10 13.98 -10 15 C-8.68 15 -7.36 15 -6 15 C-6 13.68 -6 12.36 -6 11 C-6.99 10.67 -7.98 10.34 -9 10 C-6.09399739 8.74335022 -4.20395416 8 -1 8 C-1.020625 7.05125 -1.04125 6.1025 -1.0625 5.125 C-1 2 -1 2 0 0 Z " fill="#EBAA17" transform="translate(420,310)"/>
<path d="M0 0 C0.9061225 0.00092179 1.81224501 0.00184359 2.74582577 0.00279331 C3.78214138 0.00141865 4.81845699 0.00004398 5.88617611 -0.00137234 C7.60599445 0.00402058 7.60599445 0.00402058 9.3605566 0.00952244 C10.56039181 0.00937641 11.76022701 0.00923038 12.99642086 0.00907993 C16.29586749 0.00965889 19.59525222 0.01468805 22.89468789 0.02165389 C26.33935856 0.0278881 29.78402997 0.02849128 33.22870541 0.0296793 C39.75584288 0.03279242 46.28296369 0.04100554 52.81009382 0.05102879 C60.23923575 0.06219053 67.66837845 0.06770053 75.09752667 0.07272422 C90.38369931 0.08318817 105.6698553 0.10078723 120.95601559 0.12304783 C121.33820326 1.7791944 121.6699666 3.44761807 121.95601559 5.12304783 C120.95601559 6.12304783 120.95601559 6.12304783 118.91203117 6.24609566 C118.00590867 6.24517386 117.09978617 6.24425207 116.16620541 6.24330235 C115.12988979 6.24467701 114.09357418 6.24605167 113.02585506 6.24746799 C111.8793095 6.24387272 110.73276394 6.24027744 109.55147457 6.23657322 C108.35163937 6.23671925 107.15180416 6.23686527 105.91561031 6.23701572 C102.61616368 6.23643677 99.31677895 6.23140761 96.01734328 6.22444177 C92.57267262 6.21820756 89.1280012 6.21760438 85.68332577 6.21641636 C79.15618829 6.21330324 72.62906748 6.20509012 66.10193735 6.19506687 C58.67279543 6.18390512 51.24365272 6.17839513 43.8145045 6.17337143 C28.52833186 6.16290749 13.24217587 6.14530843 -2.04398441 6.12304783 C-2.42617208 4.46690126 -2.75793543 2.79847758 -3.04398441 1.12304783 C-2.04398441 0.12304783 -2.04398441 0.12304783 0 0 Z " fill="#0D0A01" transform="translate(361.043984413147,263.8769521713257)"/>
<path d="M0 0 C6.27 0 12.54 0 19 0 C19 1.98 19 3.96 19 6 C15.7 6 12.4 6 9 6 C9 9.63 9 13.26 9 17 C12.3 17 15.6 17 19 17 C19 19.31 19 21.62 19 24 C15.7 24 12.4 24 9 24 C9 27.3 9 30.6 9 34 C12.63 34 16.26 34 20 34 C20 36.64 20 39.28 20 42 C13.4 42 6.8 42 0 42 C0 28.14 0 14.28 0 0 Z " fill="#EFAC18" transform="translate(705,372)"/>
<path d="M0 0 C7.92 0 15.84 0 24 0 C24 2.64 24 5.28 24 8 C21.69 8 19.38 8 17 8 C17 19.55 17 31.1 17 43 C13.7 43 10.4 43 7 43 C7 31.45 7 19.9 7 8 C4.69 8 2.38 8 0 8 C0 5.36 0 2.72 0 0 Z " fill="#E3A416" transform="translate(551,371)"/>
<path d="M0 0 C2.6074028 -0.38344159 4.38063153 -0.374232 6.66796875 1.0078125 C8.3125 2.3125 8.3125 2.3125 11 5 C11 5.99 11 6.98 11 8 C12.98 8 14.96 8 17 8 C16.67 8.66 16.34 9.32 16 10 C71.11 10.33 126.22 10.66 183 11 C183 11.66 183 12.32 183 13 C126.57 13 70.14 13 12 13 C12 14.98 12 16.96 12 19 C10.5 22.3125 10.5 22.3125 8 25 C5.231934 25.80823301 2.92015074 25.90266164 0 26 C1.78818233 24.11770281 3.3841933 22.75467175 5.59375 21.34375 C8.33799158 19.14876696 8.33799158 19.14876696 8.48828125 15.546875 C8.43027344 14.29390625 8.37226563 13.0409375 8.3125 11.75 C8.26738281 10.48671875 8.22226562 9.2234375 8.17578125 7.921875 C8.11777344 6.95765625 8.05976563 5.9934375 8 5 C7.38640625 4.70351562 6.7728125 4.40703125 6.140625 4.1015625 C3.88567831 2.94117022 1.99071996 1.56413711 0 0 Z " fill="#2E2104" transform="translate(310,209)"/>
<path d="M0 0 C3.3 0 6.6 0 10 0 C10 14.52 10 29.04 10 44 C6.7 44 3.4 44 0 44 C0 29.48 0 14.96 0 0 Z " fill="#DFA116" transform="translate(600,370)"/>
<path d="M0 0 C3.3 0 6.6 0 10 0 C10 14.52 10 29.04 10 44 C6.7 44 3.4 44 0 44 C0 29.48 0 14.96 0 0 Z " fill="#DFA116" transform="translate(238,370)"/>
<path d="M0 0 C1.2065625 0.0309375 1.2065625 0.0309375 2.4375 0.0625 C2.625 3.4375 2.625 3.4375 2.4375 7.0625 C1.4475 7.7225 0.4575 8.3825 -0.5625 9.0625 C1.7475 9.7225 4.0575 10.3825 6.4375 11.0625 C6.416875 10.258125 6.39625 9.45375 6.375 8.625 C6.4375 6.0625 6.4375 6.0625 7.4375 5.0625 C9.43708364 5.02169217 11.43795254 5.01995644 13.4375 5.0625 C13.4375 7.0425 13.4375 9.0225 13.4375 11.0625 C14.7575 11.3925 16.0775 11.7225 17.4375 12.0625 C16.4475 12.0625 15.4575 12.0625 14.4375 12.0625 C14.4375 12.7225 14.4375 13.3825 14.4375 14.0625 C12.66675083 14.08955729 10.89588289 14.10892195 9.125 14.125 C8.13886719 14.13660156 7.15273438 14.14820313 6.13671875 14.16015625 C3.4375 14.0625 3.4375 14.0625 0.4375 13.0625 C0.4375 14.7125 0.4375 16.3625 0.4375 18.0625 C-4.77423012 21.35411902 -9.55414122 21.82593833 -15.5625 21.0625 C-17.8671875 20.04296875 -17.8671875 20.04296875 -19.5625 19.0625 C-14.9375 15.0625 -14.9375 15.0625 -11.5625 15.0625 C-11.5625 16.7125 -11.5625 18.3625 -11.5625 20.0625 C-10.5725 20.0625 -9.5825 20.0625 -8.5625 20.0625 C-8.5625 18.4125 -8.5625 16.7625 -8.5625 15.0625 C-7.2425 14.7325 -5.9225 14.4025 -4.5625 14.0625 C-4.2325 15.3825 -3.9025 16.7025 -3.5625 18.0625 C-2.9025 17.7325 -2.2425 17.4025 -1.5625 17.0625 C-1.99889406 14.1168401 -2.71095127 12.87806054 -4.625 10.5 C-6.5625 8.0625 -6.5625 8.0625 -6.5625 5.0625 C-5.9025 5.0625 -5.2425 5.0625 -4.5625 5.0625 C-4.418125 4.423125 -4.27375 3.78375 -4.125 3.125 C-3.30589691 0.12162199 -3.19313651 0.07788138 0 0 Z " fill="#B48211" transform="translate(429.5625,323.9375)"/>
<path d="M0 0 C53.46 0 106.92 0 162 0 C162 2.31 162 4.62 162 7 C156.72 7 151.44 7 146 7 C145.67 7.66 145.34 8.32 145 9 C144.67 7.68 144.34 6.36 144 5 C149.61 5 155.22 5 161 5 C161 3.68 161 2.36 161 1 C108.53 1 56.06 1 2 1 C2.33 3.64 2.66 6.28 3 9 C2.01 8.34 1.02 7.68 0 7 C0 4.69 0 2.38 0 0 Z " fill="#2A1F04" transform="translate(327,229)"/>
<path d="M0 0 C2.31 0 4.62 0 7 0 C7 9.9 7 19.8 7 30 C4.69 30 2.38 30 0 30 C0 20.1 0 10.2 0 0 Z " fill="#1B1302" transform="translate(442,377)"/>
<path d="M0 0 C2 2 2 2 3 5.0625 C3.65752556 8.12150806 3.65752556 8.12150806 6 9 C6 7.68 6 6.36 6 5 C7.32 5.33 8.64 5.66 10 6 C10 7.65 10 9.3 10 11 C7 12 7 12 4 11 C3.484375 11.66 2.96875 12.32 2.4375 13 C0 15 0 15 -3.5 15.5625 C-7 15 -7 15 -9.4375 12.875 C-11.26836859 9.50620179 -11.64250722 7.77472994 -11 4 C-8.04498906 -0.49161662 -5.14207848 -0.57134205 0 0 Z " fill="#D29715" transform="translate(402,330)"/>
<path d="M0 0 C1.98 0 3.96 0 6 0 C6 10.23 6 20.46 6 31 C4.02 31 2.04 31 0 31 C0 20.77 0 10.54 0 0 Z " fill="#0E0A01" transform="translate(74,377)"/>
<path d="M0 0 C2.31 0 4.62 0 7 0 C7 4.95 7 9.9 7 15 C4.69 15 2.38 15 0 15 C0 10.05 0 5.1 0 0 Z " fill="#211803" transform="translate(194,377)"/>
<path d="M0 0 C0.53625 0.226875 1.0725 0.45375 1.625 0.6875 C0.201875 0.81125 0.201875 0.81125 -1.25 0.9375 C-4.43825732 1.31538694 -4.43825732 1.31538694 -5.5 3.5 C-5.933125 4.5828125 -5.933125 4.5828125 -6.375 5.6875 C-8.375 7.9375 -8.375 7.9375 -10.375 9.6875 C-11.035 9.6875 -11.695 9.6875 -12.375 9.6875 C-12.30804932 10.35281738 -12.24109863 11.01813477 -12.17211914 11.70361328 C-11.88867859 14.73772155 -11.66267631 17.77353522 -11.4375 20.8125 C-11.27797852 22.38257813 -11.27797852 22.38257813 -11.11523438 23.984375 C-10.6081452 31.61485965 -10.6081452 31.61485965 -12.86279297 34.76855469 C-17.30587706 38.6875 -17.30587706 38.6875 -20.375 38.6875 C-20.375 41.9875 -20.375 45.2875 -20.375 48.6875 C-20.705 48.6875 -21.035 48.6875 -21.375 48.6875 C-21.99601411 38.83752614 -21.99601411 38.83752614 -19.6875 34.5625 C-17.13672165 32.49430134 -15.55423452 32.20419151 -12.375 31.6875 C-12.53097656 31.11644531 -12.68695313 30.54539063 -12.84765625 29.95703125 C-14.61534057 22.59363102 -16.00734655 13.0867641 -11.94921875 6.3046875 C-11.42972656 5.77101562 -10.91023438 5.23734375 -10.375 4.6875 C-9.715 4.6875 -9.055 4.6875 -8.375 4.6875 C-8.375 4.0275 -8.375 3.3675 -8.375 2.6875 C-2.95961538 -0.38942308 -2.95961538 -0.38942308 0 0 Z " fill="#BD8813" transform="translate(315.375,178.3125)"/>
<path d="M0 0 C2.6074028 -0.38344159 4.38063153 -0.374232 6.66796875 1.0078125 C8.3125 2.3125 8.3125 2.3125 11 5 C11 5.99 11 6.98 11 8 C12.32 8.33 13.64 8.66 15 9 C13.68 9.33 12.36 9.66 11 10 C10.73067479 14.65052872 10.73067479 14.65052872 12 19 C10.5 21.9375 10.5 21.9375 8 25 C5.23513429 25.83895734 2.92560787 25.90247974 0 26 C1.78818233 24.11770281 3.3841933 22.75467175 5.59375 21.34375 C8.33799158 19.14876696 8.33799158 19.14876696 8.48828125 15.546875 C8.43027344 14.29390625 8.37226563 13.0409375 8.3125 11.75 C8.26738281 10.48671875 8.22226562 9.2234375 8.17578125 7.921875 C8.11777344 6.95765625 8.05976563 5.9934375 8 5 C7.38640625 4.70351562 6.7728125 4.40703125 6.140625 4.1015625 C3.88567831 2.94117022 1.99071996 1.56413711 0 0 Z " fill="#6F500B" transform="translate(310,209)"/>
<path d="M0 0 C1.98 0 3.96 0 6 0 C6 4.29 6 8.58 6 13 C4.02 13 2.04 13 0 13 C0 8.71 0 4.42 0 0 Z " fill="#1C1402" transform="translate(285,377)"/>
<path d="M0 0 C3 0.25 3 0.25 5 2.25 C5.25 4.75 5.25 4.75 5 7.25 C3 9.25 3 9.25 0 9.5 C-3 9.25 -3 9.25 -5 7.25 C-5.25 4.75 -5.25 4.75 -5 2.25 C-3 0.25 -3 0.25 0 0 Z " fill="#1C1402" transform="translate(307,216.75)"/>
<path d="M0 0 C0.33 1.32 0.66 2.64 1 4 C3.31 4 5.62 4 8 4 C8 5.98 8 7.96 8 10 C2.25 10.125 2.25 10.125 0 9 C0.33 10.65 0.66 12.3 1 14 C0.01 14 -0.98 14 -2 14 C-2 12.35 -2 10.7 -2 9 C-2.66 8.67 -3.32 8.34 -4 8 C-3.01 8 -2.02 8 -1 8 C-1.020625 7.05125 -1.04125 6.1025 -1.0625 5.125 C-1 2 -1 2 0 0 Z " fill="#B28011" transform="translate(420,310)"/>
<path d="M0 0 C0.66 0.33 1.32 0.66 2 1 C3.14194619 5.68197939 3.23931094 10.21378116 3 15 C2.34 15.66 1.68 16.32 1 17 C1 16.01 1 15.02 1 14 C-0.98 14 -2.96 14 -5 14 C-5.04254356 12.00045254 -5.04080783 9.99958364 -5 8 C-4 7 -4 7 -1.4375 6.9375 C-0.2309375 6.9684375 -0.2309375 6.9684375 1 7 C0.67 4.69 0.34 2.38 0 0 Z " fill="#BC8812" transform="translate(456,307)"/>
<path d="M0 0 C1.4540625 0.0309375 1.4540625 0.0309375 2.9375 0.0625 C2.9375 2.0425 2.9375 4.0225 2.9375 6.0625 C4.2575 6.3925 5.5775 6.7225 6.9375 7.0625 C3.99520079 8.0432664 1.9466216 8.22738128 -1.125 8.25 C-2.44177734 8.27126953 -2.44177734 8.27126953 -3.78515625 8.29296875 C-6.0625 8.0625 -6.0625 8.0625 -8.0625 6.0625 C-6.7425 6.0625 -5.4225 6.0625 -4.0625 6.0625 C-4.083125 5.258125 -4.10375 4.45375 -4.125 3.625 C-4.03366838 -0.11959638 -3.80090148 0.07756942 0 0 Z " fill="#C68F13" transform="translate(440.0625,328.9375)"/>
<path d="M0 0 C2.0625 0.4375 2.0625 0.4375 4 1 C4.33 2.32 4.66 3.64 5 5 C1.77252945 7.15164703 0.79494361 7.27245079 -2.9375 7.25 C-3.79214844 7.25515625 -4.64679688 7.2603125 -5.52734375 7.265625 C-8.11974567 6.98713633 -9.76514234 6.30669172 -12 5 C-7.375 1 -7.375 1 -4 1 C-4 2.65 -4 4.3 -4 6 C-3.01 6 -2.02 6 -1 6 C-1.020625 5.195625 -1.04125 4.39125 -1.0625 3.5625 C-1 1 -1 1 0 0 Z " fill="#88620D" transform="translate(422,338)"/>
<path d="M0 0 C0.78375 0.04125 1.5675 0.0825 2.375 0.125 C2.705 1.775 3.035 3.425 3.375 5.125 C4.035 4.795 4.695 4.465 5.375 4.125 C4.12953595 7.86139216 2.74095047 8.31256513 -0.625 10.125 C-0.625 9.135 -0.625 8.145 -0.625 7.125 C-1.945 7.125 -3.265 7.125 -4.625 7.125 C-4.75 4.75 -4.75 4.75 -4.625 2.125 C-2.625 0.125 -2.625 0.125 0 0 Z " fill="#AF7E11" transform="translate(450.625,323.875)"/>
<path d="M0 0 C0.93186408 2.51603301 1.02589195 3.88739609 0.41796875 6.53125 C-1 9 -1 9 -3.86328125 10.14453125 C-5.00152344 10.36496094 -6.13976562 10.58539063 -7.3125 10.8125 C-8.44300781 11.04582031 -9.57351563 11.27914062 -10.73828125 11.51953125 C-13.56214532 11.93550165 -16.15442735 12.10143692 -19 12 C-18.44894091 8.0507432 -17.61064629 4.65079826 -16 1 C-14.51423365 5.01156915 -15.19252122 5.48130304 -17 10 C-12.05 9.34 -7.1 8.68 -2 8 C-1.67 6.02 -1.34 4.04 -1 2 C-0.67 1.34 -0.34 0.68 0 0 Z " fill="#7B580C" transform="translate(365,185)"/>
<path d="M0 0 C0.33 0.66 0.66 1.32 1 2 C0.34 2 -0.32 2 -1 2 C-1 2.66 -1 3.32 -1 4 C-2.98 4.33 -4.96 4.66 -7 5 C-7 5.99 -7 6.98 -7 8 C-7.99 8 -8.98 8 -10 8 C-10.33 8.66 -10.66 9.32 -11 10 C-11.31785906 6.50355037 -11.39644605 4.602598 -9.4375 1.625 C-6.18317497 -0.54455002 -3.82869586 -0.29451507 0 0 Z " fill="#A37610" transform="translate(402,330)"/>
<path d="M0 0 C0.7734375 0.8971875 0.7734375 0.8971875 1.5625 1.8125 C7.32630589 6.98514631 13.5445074 7.56497126 21 8 C21 8.33 21 8.66 21 9 C19.22925083 9.02705729 17.45838289 9.04642195 15.6875 9.0625 C14.70136719 9.07410156 13.71523438 9.08570313 12.69921875 9.09765625 C10 9 10 9 7 8 C7 9.65 7 11.3 7 13 C6.01 13 5.02 13 4 13 C4.268125 12.46375 4.53625 11.9275 4.8125 11.375 C5.29861234 8.6603439 5.29861234 8.6603439 2.5625 5.9375 C1.716875 4.968125 0.87125 3.99875 0 3 C0 2.01 0 1.02 0 0 Z " fill="#2F2204" transform="translate(423,329)"/>
<path d="M0 0 C0.33 0 0.66 0 1 0 C0.67 5.94 0.34 11.88 0 18 C-0.66 18.33 -1.32 18.66 -2 19 C-3.59162079 13.42932723 -4.20674944 8.78898419 -4 3 C-3.67 3 -3.34 3 -3 3 C-3 5.31 -3 7.62 -3 10 C-2.34 10 -1.68 10 -1 10 C-0.67 6.7 -0.34 3.4 0 0 Z " fill="#A77810" transform="translate(517,384)"/>
<path d="M0 0 C0.66 0.33 1.32 0.66 2 1 C2.36329537 4.01016161 2.61162751 6.08300728 2 9 C0.00586548 11.50182757 -2.2557405 13.36089478 -5 15 C-5.66 15 -6.32 15 -7 15 C-7 18.3 -7 21.6 -7 25 C-7.33 25 -7.66 25 -8 25 C-8.62101411 15.15002614 -8.62101411 15.15002614 -6.3125 10.875 C-3.7943912 8.83329016 -2.20280069 8.26690006 1 8 C0.67 5.36 0.34 2.72 0 0 Z " fill="#AB7B11" transform="translate(302,202)"/>
<path d="M0 0 C2.6074028 -0.38344159 4.38063153 -0.374232 6.66796875 1.0078125 C8.3125 2.3125 8.3125 2.3125 11 5 C11 5.99 11 6.98 11 8 C12.32 8.33 13.64 8.66 15 9 C13.68 9.33 12.36 9.66 11 10 C11 11.65 11 13.3 11 15 C10.67 15 10.34 15 10 15 C9.855625 13.906875 9.71125 12.81375 9.5625 11.6875 C9.11711896 8.06877013 9.11711896 8.06877013 8 5 C6.15028304 3.94978897 6.15028304 3.94978897 4 3 C2.64886795 2.02418241 1.31053056 1.02970259 0 0 Z " fill="#412E06" transform="translate(310,209)"/>
<path d="M0 0 C5.61 0 11.22 0 17 0 C17.66 1.32 18.32 2.64 19 4 C18.34 3.67 17.68 3.34 17 3 C14.68851505 2.92839266 12.3749941 2.91602173 10.0625 2.9375 C8.81597656 2.94652344 7.56945312 2.95554688 6.28515625 2.96484375 C5.20105469 2.97644531 4.11695313 2.98804688 3 3 C2.01 3 1.02 3 0 3 C0 2.01 0 1.02 0 0 Z " fill="#A67810" transform="translate(432,235)"/>
<path d="M0 0 C1.7435756 3.11930825 2.54645178 5.99110451 3.1875 9.5 C3.36667969 10.4384375 3.54585938 11.376875 3.73046875 12.34375 C4 15 4 15 3 19 C2.01 16.03 1.02 13.06 0 10 C-0.66 10.99 -1.32 11.98 -2 13 C-1.85966889 11.02043559 -1.7125877 9.04134859 -1.5625 7.0625 C-1.48128906 5.96035156 -1.40007812 4.85820312 -1.31640625 3.72265625 C-1 1 -1 1 0 0 Z " fill="#453106" transform="translate(506,392)"/>
<path d="M0 0 C4.38194261 4.58112182 5 10.91061589 5 17 C3.35 17.33 1.7 17.66 0 18 C0 16.68 0 15.36 0 14 C0.66 14 1.32 14 2 14 C1.855625 13.32453125 1.71125 12.6490625 1.5625 11.953125 C1.376875 11.06109375 1.19125 10.1690625 1 9.25 C0.814375 8.36828125 0.62875 7.4865625 0.4375 6.578125 C0 4 0 4 0 0 Z " fill="#AA7B11" transform="translate(481,152)"/>
<path d="M0 0 C-0.28127421 1.48117801 -0.57533732 2.95993249 -0.875 4.4375 C-1.11863281 5.67306641 -1.11863281 5.67306641 -1.3671875 6.93359375 C-1.57601563 7.61550781 -1.78484375 8.29742187 -2 9 C-2.99 9.495 -2.99 9.495 -4 10 C-3.34 7.36 -2.68 4.72 -2 2 C-2.66386719 2.13277344 -3.32773437 2.26554688 -4.01171875 2.40234375 C-8.34114583 3.26822917 -12.67057292 4.13411458 -17 5 C-12.35880806 0.74557406 -6.15776372 -0.38486023 0 0 Z " fill="#91690E" transform="translate(354,175)"/>
<path d="M0 0 C4.875 3.75 4.875 3.75 6 6 C5.01 6 4.02 6 3 6 C3 7.32 3 8.64 3 10 C1.68 9.34 0.36 8.68 -1 8 C-0.67 5.36 -0.34 2.72 0 0 Z " fill="#DFA116" transform="translate(405,329)"/>
<path d="M0 0 C1.32 0.33 2.64 0.66 4 1 C4 2.65 4 4.3 4 6 C0.23375329 7.25541557 -1.37188934 6.37061958 -5 5 C-5 4.34 -5 3.68 -5 3 C-2.525 3.495 -2.525 3.495 0 4 C0 2.68 0 1.36 0 0 Z " fill="#7D5A0C" transform="translate(408,335)"/>
<path d="M0 0 C1.65 0.33 3.3 0.66 5 1 C4.67 2.65 4.34 4.3 4 6 C2.35 5.67 0.7 5.34 -1 5 C-0.67 3.35 -0.34 1.7 0 0 Z " fill="#3C2B05" transform="translate(437,329)"/>
<path d="M0 0 C1.65 0.33 3.3 0.66 5 1 C4.67 2.65 4.34 4.3 4 6 C2.35 5.67 0.7 5.34 -1 5 C-0.67 3.35 -0.34 1.7 0 0 Z " fill="#3C2B06" transform="translate(427,304)"/>
<path d="M0 0 C0.33 1.32 0.66 2.64 1 4 C1.66386719 3.7834375 2.32773437 3.566875 3.01171875 3.34375 C3.89472656 3.0653125 4.77773438 2.786875 5.6875 2.5 C6.55761719 2.2215625 7.42773438 1.943125 8.32421875 1.65625 C10.99391677 1.00149195 13.26396684 0.88168505 16 1 C13.03799949 2.974667 10.90228368 3.71955354 7.5 4.625 C6.5409375 4.88539063 5.581875 5.14578125 4.59375 5.4140625 C2 6 2 6 -1 6 C-0.67 4.02 -0.34 2.04 0 0 Z " fill="#AC7C11" transform="translate(386,181)"/>
<path d="M0 0 C0.33 0 0.66 0 1 0 C1.33 1.98 1.66 3.96 2 6 C1.34 6 0.68 6 0 6 C0 6.66 0 7.32 0 8 C0.66 8 1.32 8 2 8 C1.6875 9.9375 1.6875 9.9375 1 12 C0.01 12.33 -0.98 12.66 -2 13 C-1.85915204 11.20793453 -1.71216299 9.41635083 -1.5625 7.625 C-1.48128906 6.62726563 -1.40007812 5.62953125 -1.31640625 4.6015625 C-1 2 -1 2 0 0 Z " fill="#A87910" transform="translate(403,332)"/>
<path d="M0 0 C0.66 0 1.32 0 2 0 C1.68853528 1.89600369 1.37578283 3.79179587 1.0625 5.6875 C0.88847656 6.74324219 0.71445312 7.79898437 0.53515625 8.88671875 C0.06832879 11.60249604 -0.44422616 14.30124235 -1 17 C-1.33 17 -1.66 17 -2 17 C-2.11116338 11.55299453 -2.00581962 6.36437132 -1 1 C-0.67 0.67 -0.34 0.34 0 0 Z " fill="#BF8912" transform="translate(505,389)"/>
<path d="M0 0 C1.32 0.66 2.64 1.32 4 2 C4 3.32 4 4.64 4 6 C2.68 6 1.36 6 0 6 C-0.33 5.34 -0.66 4.68 -1 4 C-1.99 4.66 -2.98 5.32 -4 6 C-2.84826645 3.53199953 -1.95216435 1.95216435 0 0 Z " fill="#684B0A" transform="translate(410,319)"/>
<path d="M0 0 C1.65 0 3.3 0 5 0 C5 1.65 5 3.3 5 5 C3.35 5 1.7 5 0 5 C0 3.35 0 1.7 0 0 Z " fill="#291D04" transform="translate(447,325)"/>
<path d="M0 0 C1.65 0 3.3 0 5 0 C5 1.65 5 3.3 5 5 C3.35 5 1.7 5 0 5 C0 3.35 0 1.7 0 0 Z " fill="#281D04" transform="translate(447,304)"/>
<path d="M0 0 C1.65 1.32 3.3 2.64 5 4 C4.67 5.32 4.34 6.64 4 8 C3.34 8 2.68 8 2 8 C1.67 7.01 1.34 6.02 1 5 C0.01 4.34 -0.98 3.68 -2 3 C-1.34 3 -0.68 3 0 3 C0 2.01 0 1.02 0 0 Z " fill="#D09614" transform="translate(424,334)"/>
<path d="M0 0 C0.33 0.99 0.66 1.98 1 3 C2.32 3 3.64 3 5 3 C5 4.32 5 5.64 5 7 C4.38125 6.814375 3.7625 6.62875 3.125 6.4375 C0.95839822 5.76313824 0.95839822 5.76313824 -1 7 C-0.67 4.69 -0.34 2.38 0 0 Z " fill="#624709" transform="translate(405,325)"/>
<path d="M0 0 C1.65 0 3.3 0 5 0 C5 1.65 5 3.3 5 5 C3.35 4.67 1.7 4.34 0 4 C0 2.68 0 1.36 0 0 Z " fill="#261B03" transform="translate(426,325)"/>
<path d="M0 0 C1.65 0 3.3 0 5 0 C4.67 1.65 4.34 3.3 4 5 C2.68 5 1.36 5 0 5 C0 3.35 0 1.7 0 0 Z " fill="#261B03" transform="translate(422,315)"/>
<path d="M0 0 C1.65 0 3.3 0 5 0 C5 1.65 5 3.3 5 5 C3.35 4.67 1.7 4.34 0 4 C0 2.68 0 1.36 0 0 Z " fill="#281D03" transform="translate(451,315)"/>
<path d="M0 0 C1.65 0 3.3 0 5 0 C4.67 1.65 4.34 3.3 4 5 C2.68 5 1.36 5 0 5 C0 3.35 0 1.7 0 0 Z " fill="#281D03" transform="translate(437,300)"/>
<path d="M0 0 C2.25 0.25 2.25 0.25 4 1 C1.03 3.475 1.03 3.475 -2 6 C-2.66 5.34 -3.32 4.68 -4 4 C-2.25 1.9375 -2.25 1.9375 0 0 Z " fill="#523B08" transform="translate(424,300)"/>
<path d="M0 0 C0.556875 0.61875 1.11375 1.2375 1.6875 1.875 C4.06645178 4.06106379 5.96357096 4.98785699 9 6 C6.27584084 7.36207958 4.87220643 6.86166193 2 6 C0 3 0 3 0 0 Z " fill="#5B4208" transform="translate(423,329)"/>
<path d="M0 0 C1.670625 0.061875 1.670625 0.061875 3.375 0.125 C3.705 0.785 4.035 1.445 4.375 2.125 C3.055 2.455 1.735 2.785 0.375 3.125 C0.375 2.465 0.375 1.805 0.375 1.125 C-0.615 1.125 -1.605 1.125 -2.625 1.125 C-2.955 2.115 -3.285 3.105 -3.625 4.125 C-4.285 3.465 -4.945 2.805 -5.625 2.125 C-3.625 0.125 -3.625 0.125 0 0 Z " fill="#6E4F0A" transform="translate(398.625,329.875)"/>
<path d="M0 0 C0 0.99 0 1.98 0 3 C-4.43076923 5.09230769 -4.43076923 5.09230769 -7.3125 4.625 C-7.869375 4.41875 -8.42625 4.2125 -9 4 C-8.2575 3.71125 -7.515 3.4225 -6.75 3.125 C-4.43260203 2.17697356 -2.22082885 1.15154089 0 0 Z " fill="#AD7D11" transform="translate(319,230)"/>
<path d="M0 0 C2.25 -0.25 2.25 -0.25 5 0 C7.3125 2 7.3125 2 9 4 C8.01 4.33 7.02 4.66 6 5 C2.8125 3.125 2.8125 3.125 0 1 C0 0.67 0 0.34 0 0 Z " fill="#835E0D" transform="translate(310,209)"/>
<path d="M0 0 C0.99 0.33 1.98 0.66 3 1 C2.34 2.98 1.68 4.96 1 7 C0.67 6.34 0.34 5.68 0 5 C-0.99 4.67 -1.98 4.34 -3 4 C-2.505 3.525625 -2.01 3.05125 -1.5 2.5625 C0.11542197 1.24076302 0.11542197 1.24076302 0 0 Z " fill="#AC7C11" transform="translate(470,141)"/>
</svg>
